<!DOCTYPE svg PUBLIC "-//W3C//DTD SVG 1.1//EN" "http://www.w3.org/Graphics/SVG/1.1/DTD/svg11.dtd"[]><svg xmlns="http://www.w3.org/2000/svg" version="1.1" width="17" height="22" style="shape-rendering:geometricPrecision; text-rendering:geometricPrecision; image-rendering:optimizeQuality; fill-rule:evenodd; clip-rule:evenodd" xmlns:xlink="http://www.w3.org/1999/xlink" viewBox="0 0 400 400"><g><path style="opacity:1" fill="#fd6d02" d="M 399.5,299.5 C 399.5,300.167 399.5,300.833 399.5,301.5C 389.272,303.571 378.939,305.071 368.5,306C 357.559,307.809 347.559,311.809 338.5,318C 318.39,338.716 293.724,350.383 264.5,353C 213.146,353.266 175.98,330.766 153,285.5C 137.895,248.14 143.728,214.64 170.5,185C 195.597,166.217 222.931,162.551 252.5,174C 279.085,187.587 293.752,209.254 296.5,239C 295.333,259.461 286,274.794 268.5,285C 244.386,293.068 224.552,287.234 209,267.5C 208.392,265.846 207.892,264.179 207.5,262.5C 207.5,261.833 207.833,261.5 208.5,261.5C 220.157,279.305 236.491,285.472 257.5,280C 275.066,270.778 283.899,256.278 284,236.5C 279.513,211.679 265.013,196.179 240.5,190C 208.319,187.519 187.486,201.685 178,232.5C 174.577,268.171 189.077,293.337 221.5,308C 271.809,321.078 304.642,302.911 320,253.5C 325.718,224.367 319.052,198.7 300,176.5C 264.566,138.964 223.066,130.464 175.5,151C 134.43,175.299 115.596,211.466 119,259.5C 121.685,275.84 126.352,291.506 133,306.5C 134.733,335.111 121.567,352.611 93.5,359C 78.452,361.473 66.6187,356.64 58,344.5C 53.6701,336.499 50.3367,328.166 48,319.5C 39.8051,296.918 23.6384,284.584 -0.5,282.5C -0.5,280.833 -0.5,279.167 -0.5,277.5C 8.22064,275.76 16.554,272.927 24.5,269C 30.8913,263.6 34.7246,256.766 36,248.5C 37.8283,234.546 38.8283,220.546 39,206.5C 35.8181,193.947 29.8181,182.947 21,173.5C 20.5065,171.866 20.3398,170.199 20.5,168.5C 37.0059,172.388 50.8393,168.055 62,155.5C 68.4806,147.219 74.4806,138.552 80,129.5C 84.3328,119.624 85.6662,109.29 84,98.5C 81.423,91.0365 79.923,83.3699 79.5,75.5C 81.6957,75.5652 83.6957,76.2319 85.5,77.5C 96.6157,92.6378 111.282,97.4711 129.5,92C 138.413,87.7084 147.413,83.7084 156.5,80C 169.681,69.4681 176.347,55.6347 176.5,38.5C 177.978,38.238 179.311,38.5713 180.5,39.5C 191.604,64.2411 210.938,76.0744 238.5,75C 241.5,75.6667 244.5,75.6667 247.5,75C 259.133,71.046 268.133,63.7126 274.5,53C 276.679,51.0131 278.512,51.1798 280,53.5C 279.728,73.5412 287.561,89.5412 303.5,101.5C 304.373,103.413 305.373,105.247 306.5,107C 316.576,114.691 327.909,117.691 340.5,116C 346.282,113.608 352.282,112.108 358.5,111.5C 349.599,137.156 352.265,161.49 366.5,184.5C 368.845,187.177 371.512,189.51 374.5,191.5C 382.044,193.803 389.711,195.636 397.5,197C 398.175,199.242 397.675,201.409 396,203.5C 383.158,216.374 374.491,231.707 370,249.5C 367.598,273.557 377.432,290.224 399.5,299.5 Z" /></g><g><path style="opacity:0.465" fill="#cf8200" d="M 208.5,261.5 C 207.833,261.5 207.5,261.833 207.5,262.5C 206.034,261.653 205.2,260.32 205,258.5C 204.432,255.779 204.099,253.112 204,250.5C 205.068,254.314 206.568,257.98 208.5,261.5 Z" /></g></svg>